<svg width="400" height="600" viewBox="0 0 400 600" fill="none" xmlns="http://www.w3.org/2000/svg">
<path d="M0 400H100C155.228 400 200 444.772 200 500V600H100C44.7715 600 0 555.228 0 500V400Z" fill="#24CB71"/>
<path d="M200 500C200 444.772 244.772 400 300 400V400C355.228 400 400 444.772 400 500V500C400 555.228 355.228 600 300 600H200V500Z" fill="#00B6FF"/>
<path d="M200 0H300C355.228 0 400 44.7715 400 100V100C400 155.228 355.228 200 300 200V200C244.772 200 200 155.228 200 100V0Z" fill="#FF7237"/>
<path d="M0 100C0 44.7715 44.7715 0 100 0H200V100C200 155.228 155.228 200 100 200H0V100Z" fill="#FF3737"/>
<path d="M0 200H100C155.228 200 200 244.772 200 300V300C200 355.228 155.228 400 100 400H0V200Z" fill="#874FFF"/>
</svg>
