<svg width="510" height="510" viewBox="0 0 510 510" fill="none" xmlns="http://www.w3.org/2000/svg">
<path d="M255 155C255 99.7715 210.228 55 155 55V55C99.7715 55 55 99.7715 55 155V155C55 210.228 99.7715 255 155 255V255C210.228 255 255 210.228 255 155V155Z" fill="#FF3737"/>
<path d="M255 155C255 210.228 299.772 255 355 255V255C410.228 255 455 210.228 455 155V155C455 99.7715 410.228 55 355 55V55C299.772 55 255 99.7715 255 155V155Z" fill="#24CB71"/>
<path d="M255 355C255 410.228 210.228 455 155 455V455C99.7715 455 55 410.228 55 355V355C55 299.772 99.7715 255 155 255V255C210.228 255 255 299.772 255 355V355Z" fill="#874FFF"/>
<path d="M255 355C255 299.772 299.772 255 355 255V255C410.228 255 455 299.772 455 355V355C455 410.228 410.228 455 355 455V455C299.772 455 255 410.228 255 355V355Z" fill="#00B6FF"/>
</svg>
